<svg xmlns="http://www.w3.org/2000/svg" viewBox="0 0 32 32"><style>.st0{fill-rule:evenodd;clip-rule:evenodd;}</style><path fill="#fff" id="XMLID_2_" class="st0" d="M15.8 24.5h1.8s.5-.1.8-.4c.3-.3.2-.8.2-.8s0-2.4 1.1-2.8c1.1-.4 2.5 2.3 4.1 3.4 1.1.8 2 .6 2 .6l4-.1s2.1-.1 1.1-1.8c-.1-.1-.6-1.2-3-3.5-2.5-2.4-2.2-2 .9-6 1.9-2.5 2.6-4 2.4-4.6-.2-.6-1.6-.5-1.6-.5H25s-.3 0-.6.1c-.2.1-.4.5-.4.5s-.7 1.9-1.7 3.6c-2 3.4-2.8 3.6-3.2 3.4-.8-.5-.6-2-.6-3.1 0-3.3.5-4.7-1-5.1-.5-.1-.9-.2-2.1-.2-1.6 0-3 0-3.8.4-.5.3-.9.8-.7.9.3 0 1 .2 1.3.7.5.6.5 2.1.5 2.1s.3 3.9-.6 4.4c-.6.3-1.5-.3-3.3-3.5-.9-1.6-1.6-3.4-1.6-3.4s.1-.3-.2-.5c-.3-.2-.7-.3-.7-.3L2 8.1s-.6 0-.9.3c-.2.3 0 .8 0 .8s3.4 7.9 7.2 11.9c3.5 3.6 7.5 3.4 7.5 3.4z"/></svg>