<svg xmlns="http://www.w3.org/2000/svg" viewBox="0 0 400 400" width="400" height="400"><g><path fill="#131941" stroke="#131941" stroke-width="5" stroke-miterlimit="10" d="M237.4 286.9s-17.9 8.5-35.3-7.4c-8.6-7.9 3.4-58.2-14.5-75.5-7.8-7.6-27.6-21-19.4-34.6 8.5-14.1 3.7-31.2 1.2-38.7l-.2-.6c3.8-4.5 4.6-14.3 4.7-20.5 0-2.9-3.4-4.5-5.7-2.7-.8.6-1.5 1.4-2.3 2.3-6.2 6.9-14.7 11.2-24 11.7-.3 0-.7 0-1 .1-11.4.6-22.4-3.7-30.9-11.4l-.5-.4c-2.4-2-6.2-.4-6.3 2.7-.2 5.6.1 13.7 3.1 18-1.5 2.9-2.7 6.1-3.4 9.8-2.5 12.4 4.2 24 4.2 34 0 13.5-6.1 23.4-6.1 23.4s-25.1 51.8-25.1 87.9c0 2.6-16.5 12.5 9.2 18.4 45.4 10.5 62.6 2 86.3 9.9 5.4 1.8 20.6 4.9 38.2 4.6 39.5-.7 75.5-7.3 75.5-7.3s28.2 6.7 42.4-3.9c2.9-2.2-14.5-8.6-19.8-9.2-41.6-5.4-70.3-10.6-70.3-10.6z"/><path stroke="#131941" stroke-width="6" stroke-miterlimit="10" fill="none" d="M50 290.1h300"/><g><path fill="#F15B2A" d="M308 284.2c6.5 1.4 10.9 8.5 5.7 19.2-2.2 4.4-10.7 6.2-18.8 6.9-8.7.8-22.2-2.3-26.8-5.1-4.6-2.7-11.9-8.8-12.6-17.4-.3-3.2 1-7 2.7-8 2.8-1.7 6.4-1.2 8.7 1.1 6.9 6.8 23 11.1 31.7 7.3l-8.2 1.1-11.2-2-9-3.9.3-6.3 2.4-5.4 7.6 7.1 10.9 3.9 16.6 1.5z"/><g><g><path fill="#F15B2A" d="M258.7 211.8c-2-7.3-2.2-15.2-8.8-25.6-5-7.9-17.9-5.5-35.9-2.3-17.9-3.2-21.3-11.8-29-6.6-13.3 9.1-15.8 28.3-16.6 35.6-.5 5.5-3.5 12.7-5.2 16.4-1.2 2.6-5.6 7.1-6.6 8.6-3.4 5.3-3.9 9-2.8 21.1 1.8 21.9 9.6 37.1 9.6 37.1l1.3 10.8 15.8.8 33.5-1.5 33.5 1.5 15.8-.8 1.3-10.8s7.7-15.2 9.6-37.1c1.1-13.2-2.1-21.3-9-26.4-4.4-3-4.3-12.9-6.5-20.8z"/><path fill="#131841" d="M247.5 308.8l-33.5-1.5-33.5 1.5h-.1l-15.8-.8c-.5 0-.9-.4-.9-.9l-1.3-10.6c-.8-1.7-7.8-16.7-9.6-37.3-1-12.4-.5-16.3 3-21.7.4-.6 1.1-1.5 2.1-2.6 1.6-1.8 3.7-4.3 4.4-5.9 3-6.6 4.7-12.2 5.1-16.1 1.7-17.3 7.6-29.9 17-36.4 1.8-1.3 3.5-1.9 5.3-1.9 2.5 0 4.9 1.2 7.9 2.6 3.9 1.9 8.7 4.2 16.3 5.6 8.9-1.6 16.7-3 22.8-3 7 0 11.4 1.8 13.9 5.8 5.1 8 6.5 14.5 7.7 20.4.4 1.9.8 3.7 1.3 5.5.7 2.6 1.2 5.3 1.6 8 .9 5.4 1.8 10.5 4.5 12.4 7.6 5.5 10.6 14.1 9.5 27.3-1.7 20.6-8.7 35.6-9.6 37.3l-1.3 10.6c-.1.5-.5.9-.9.9l-15.9.8zm-33.5-3.5l33.5 1.5 14.9-.7 1.2-10c0-.1 0-.2.1-.3.1-.2 7.6-15.3 9.5-36.7 1-12.4-1.7-20.5-8.6-25.5-3.3-2.4-4.3-7.9-5.2-13.7-.4-2.6-.9-5.3-1.6-7.8-.5-1.8-.9-3.7-1.3-5.6-1.2-5.6-2.5-12-7.4-19.7-2.1-3.4-5.9-4.9-12.2-4.9-6 0-13.7 1.4-22.5 3h-.5c-8-1.4-13.2-4-17-5.8-2.9-1.4-5-2.4-7-2.4-1.4 0-2.7.5-4.2 1.5-8.9 6.1-14.5 18.2-16.1 34.9-.4 4.2-2.2 9.8-5.3 16.7-.8 1.8-3 4.4-4.7 6.4-.8 1-1.6 1.9-2 2.4-3.2 5-3.7 8.5-2.7 20.5 1.8 21.4 9.4 36.6 9.5 36.7.1.1.1.2.1.3l1.2 10 14.9.7 33.4-1.5z"/></g><path fill="#F15B2A" d="M249.9 186.2c-1.8-4.2-7.1-10.3-9.4-14.6-1.7-3 1.1-5.6-2.6-5.3 0 0-5.3 1.6-7.4 2-2 .5-8.8 5.6-11.2 6.5-3 1.1-6.3.4-9.4.4-.9 0-9.2-3.5-9.4-3.7-1.8-1.4-13.8-4.4-14.2-3.4-.4 1-11.6 25.8-10.7 26.9.5.5 28.5 16.3 30 16.6.8.2 14.7 8.4 14.7 8.4.9 1.1 6.7-10.8 15.1-17.4 0 0 16 5.1 17.1 4.7 4.2-1.3-1.3-18.5-2.6-21.1z"/><g><path fill="#EDA65B" d="M185 300.3s1.3-4.2 1.1-7.7c-1.1.9-4.3-.7-6.9-1.4-1.2-.3-16.3-2.5-18.9 5.3-2.1 6.4.6 9.2 1 10.2 1.9 3.7 8.6 1 8.6 1l1.7.4c2.7.5 5.4.5 8-.1l.3-.1s3.3-3.4 4.4-6.3c.3-.5.5-.9.7-1.3z"/><path fill="#131841" d="M165.3 309.6c-2.9 0-4.2-1.4-4.8-2.5 0-.1-.1-.2-.2-.3-.9-1.3-2.9-4.5-.9-10.6 1-3 4.1-6.5 13.7-6.5 3.2 0 5.8.4 6.3.6.8.2 1.6.5 2.4.8 1.2.4 2.5.9 3.3.9h.3c.3-.2.7-.3 1-.1.3.1.6.5.6.9.2 3.5-1 7.5-1.1 8 0 .1 0 .2-.1.2-.2.4-.4.8-.5 1.1-1.2 3-4.5 6.5-4.6 6.7-.1.1-.3.2-.5.3l-.3.1c-1.5.3-2.9.5-4.4.5-1.4 0-2.7-.1-4-.4l-1.4-.3c-.8-.1-2.8.6-4.8.6zm7.8-18c-3.8 0-10.4.7-11.9 5.1-1.7 5.2-.1 7.7.7 8.9.1.2.2.4.3.5.2.3.7 1.4 3 1.4 2.1 0 4.3-.9 4.3-.9.2-.1.4-.1.6-.1l1.7.4c2.5.5 5.1.5 7.6-.1.7-.8 3.1-3.5 4-5.8.1-.4.3-.8.6-1.2.2-.5 1-3.4 1-6.1-1.1 0-2.5-.5-3.9-1-.8-.3-1.6-.5-2.3-.7-.3 0-2.7-.4-5.7-.4z"/></g><path fill="#131841" d="M167.7 303.9c-.1 0-.2 0-.4-.1-.5-.2-.8-.8-.6-1.3.6-1.7.5-2.7 0-4.4-.2-.5.1-1.1.7-1.2.5-.2 1.1.1 1.2.7.6 2 .8 3.5 0 5.7-.1.4-.5.6-.9.6z"/><path fill="#131841" d="M175.6 304.7c-.1 0-.3 0-.4-.1-.5-.2-.7-.8-.5-1.3 1.2-2.6.4-4.1.2-4.7-.1-.1-.1-.3-.1-.3-.2-.5.1-1.1.6-1.3.5-.2 1.1.1 1.2.6 0 0 0 .1.1.1.4.8 1.5 3-.2 6.5-.2.3-.6.5-.9.5z"/><g><path fill="#EDA65B" d="M240.4 300.3s-1.3-4.2-1.1-7.7c1.1.9 4.3-.7 6.9-1.4 1.2-.3 16.3-2.5 18.9 5.3 2.1 6.4-.6 9.2-1 10.2-1.9 3.7-8.6 1-8.6 1l-1.7.4c-2.7.5-5.4.5-8-.1l-.3-.1s-3.3-3.4-4.4-6.3c-.2-.5-.4-.9-.7-1.3z"/><path fill="#131841" d="M260.2 309.6c-2 0-4-.7-4.8-.9l-1.4.3c-2.8.6-5.7.5-8.5-.1l-.3-.1c-.2 0-.4-.1-.5-.3-.1-.1-3.4-3.6-4.6-6.7-.1-.3-.3-.7-.5-1.1l-.1-.2c-.2-.5-1.3-4.5-1.1-8 0-.4.3-.7.6-.9.3-.1.7-.1 1 .1h.3c.8 0 2.1-.4 3.3-.9.8-.3 1.6-.6 2.4-.8.6-.1 3.2-.6 6.3-.6 9.6 0 12.8 3.5 13.7 6.5 2 6.1 0 9.2-.9 10.6-.1.1-.2.3-.2.3-.5 1.4-1.8 2.8-4.7 2.8zm-4.7-3c.1 0 .3 0 .4.1 0 0 2.2.9 4.3.9 2.3 0 2.8-1.1 3-1.4l.3-.5c.8-1.2 2.4-3.7.7-8.9-.6-1.9-3-5.1-11.9-5.1-3 0-5.4.4-5.8.5-.7.2-1.5.5-2.3.7-1.4.5-2.8 1-3.9 1 .1 2.7.9 5.6 1 6.1l.6 1.2c.9 2.3 3.3 5 4 5.8 2.5.6 5.1.6 7.6.1l1.7-.4c.2-.1.2-.1.3-.1z"/></g><path fill="#131841" d="M257.7 303.9c-.4 0-.8-.2-.9-.6-.8-2.2-.7-3.7 0-5.7.2-.5.7-.8 1.2-.7.5.2.8.7.7 1.2-.5 1.7-.7 2.7 0 4.4.2.5-.1 1.1-.6 1.3-.1.1-.2.1-.4.1z"/><path fill="#131841" d="M249.9 304.7c-.4 0-.7-.2-.9-.6-1.6-3.4-.5-5.7-.2-6.5 0-.1 0-.1.1-.1.2-.5.7-.8 1.3-.6.5.2.8.7.6 1.3l-.1.3c-.3.6-1.1 2.2.2 4.7.2.5 0 1.1-.5 1.3-.2.1-.3.2-.5.2z"/><path fill="#EDA65B" d="M219.9 247.4c4.5-.7 6.8-9.2 10.8-7.8 4 1.5 7.2 1.7 7.2 1.7s1.9-4.8 5-4.9c3.2-.1 6.8 3.3 6.8 3.3l-2.8 11.9-4.2-6.7s-4.3 5.2-5.6 4.9c-1.4-.3-3.5-2.4-5.2-2.8s-16.6 9.1-16.1 7.4c.5-1.7 4.1-7 4.1-7z"/><path fill="#EDA65B" d="M219 272.7c3.5-.1 5.3-5.7 8.4-4.5l5.5 1.6s1.5-3.1 3.9-3l5.1 2.7-2.3 7.8-3.1-4.8s-3.3 3.2-4.4 2.9c-1-.3-2.7-1.8-3.9-2.2s-12.8 5-12.4 3.8c.4-1 3.2-4.3 3.2-4.3z"/><path fill="#EDA65B" d="M207.9 277.2c-3.5-.1-5.3-5.7-8.4-4.5l-5.5 1.6s-1.5-3.1-3.9-3l-5.1 2.7 2.3 7.8 3.1-4.8s3.3 3.2 4.4 2.9 2.7-1.8 3.9-2.2c1.3-.4 12.8 5 12.4 3.8-.4-1.1-3.2-4.3-3.2-4.3z"/><path fill="#EDA65B" d="M208.2 246.6c-4.9-.3-7.7-8.7-12-6.9-4.3 1.8-7.7 2.3-7.7 2.3s-2.2-4.7-5.6-4.5l-5.3 1.5 1.6 14.1 4.2-7.1s1.9 3.5 2.4 2.3c.7-1.7 3.1 2.4 3.8 2.2 1.5-.4 3.7-2.7 5.5-3.2.9-.3 11 8.4 9 4.3-1.2-2.4 9 2.6 8.7 1.8-.5-1.8-4.6-6.8-4.6-6.8z"/><path fill="#EDA65B" d="M195.4 173.1c-2 3.3-4.9 3.8-7.5 12.7-1.1 3.8 5.7.9 6.1 2s-5.9 17.5-.6 13.3c1.3-1.1 4-3 6-4.4 1.1-.8 2.7-.3 3.1 1 1.5 4.5 4.6 13.3 6.1 14.8 2.1 2 4.3-7.9 5-3.2.5 3.1 2.6-2.6 4.1-6.9.5-1.6 2.7-1.8 3.5-.3l2.8 5s0-11.9 3.1-13.8c1.1-.7 5.6 8 6.3 6.6.3-.7 0-4-.5-7.3-.4-2.9 2.6-5 5.2-3.6 3 1.6 5.5 2.6 3.7.4-3.7-4.3-5.4-17.7-11.1-18.2-2.1-.2-6.9-4.2-6.9-4.2s-22.6-1.6-23.8 0c-1.2 1.6-4.6 6.1-4.6 6.1z"/><path fill="#EDA65B" d="M276.3 286.9c.5.2 10.5 5.3 9.9 5.9s-2.2 1.6-2.4 2.2c-.1.7 3 4.3 3.7 5.3s-1.3 2-2.4 2.5c-1 .5-5.5-.4-3.2 2l3.6 5.2s-1-.1-2.8-.4-10.7-2.5-12.1-3.1-5-2.7-6.3-3.7l-6.6-7.6s-2.4-5.1-2.5-6.3.2-5.2.6-6.3c.5-1 5.5-3.9 5.5-3.9s.7-1.3 3.6.9c2.8 2.2 9.6 7.1 9.6 7.1l1.8.2z"/><g><path fill="#A13A23" d="M211.8 186.7s9.6-.7 11.4-2.8c8.8-10.3 17.3-12.7 17.3-12.7l-1.3-2.6-27.6 5.3-25.4-5.1v2.8s6.6 2.3 15.7 12.5c1.8 2.1 9.8 2.6 9.9 2.6" opacity=".5" enable-background="new"/><g><g><path fill="#F15B2A" d="M252.3 131.7c-.2 9.5-1.4 19.5-6.4 27.8-2.2 3.7-3.1 6.5-6.6 9.2-3 2.1-9.6.9-14.4 4.8 0 0-6.6 5.6-12.3 5.3-5.5-.4-11-5-11-5-2.7-2.6-9.4-3.2-13.5-4.6-4.8-1.8-12.3-16.5-12.9-19.1l-1.3-5c-1.7-3.9-2-8.1-4.1-12-1.4-2.5-2.6-4.6-3.1-6.9-1.1-5.3-2.4-10.8-3.3-16.1-1.7-8-5-20.9.4-27.6 0 0 6-1.4 16.7 9.9 5.2 4.6 10.3 13.3 16.7 15.7 0 0 2.2-2.3 3.5-4.4 1.4 1.2 4.2 2.8 6.4 2.5 1.4 0 2.6-1.4 3.7-1.4.9 0 2.4.9 2.7.9 3.9 1.6 3.7-1.8 5.9-1.6 2.2 0 2.2 4.2 7 1.6l2.4-.2c6.1-6.4 18.2-22.6 28.5-20.3 9.2 2.3-1.7 37.9-4.8 46.5"/><path fill="#131841" d="M261.7 89.3c-1.8-7.6-10.7-4.8-15.4-1.6-4.2 2.8-7.9 6.5-11.2 10.3-1.4 1.6-3 3.4-4.6 5.1l-1.8 2.1c.2-.2-1.3.2-1.8.2-1.3.2-2.2 1.2-3.5.7-.8-.4-1.3-1.1-1.8-1.6-1.1-.9-2.7-.9-3.9 0-.9.9-1.4 1.6-3 1.2-1.1-.4-2.2-1.1-3.3-1.2-1.1-.2-2 .5-2.7.9-2.2 1.4-5.2-.5-6.8-1.8-.5-.4-1.3-.4-1.7.2-.9 1.4-1.7 2.5-2.7 3.7-5-2.5-8.5-7.1-11.8-11.1-3.1-3.5-6.6-6.7-10.1-9.7-1.7-1.4-3.5-2.8-5.7-3.7-2-.9-3.5-.7-5.5-.7-1.7 0-2.4 2.5-3 3.7-.9 2.3-1.3 5.1-1.3 7.6 0 5.3 1.1 10.6 2.2 15.9.8 3.2 1.1 6.5 1.8 9.7.8 3.5 1.1 7.2 2.6 10.6 1.4 3.4 3.3 6.4 4.4 9.9.8 2.5 1.7 5 2.2 7.4.8 2.6 1.4 5.1 2.6 7.4 2.4 4.8 5.2 9.7 8.8 13.6 3.5 3.7 9.4 3 13.8 5.1 4.2 3 8.8 6 14 6.7 5.3.5 10.3-3.2 14.7-6.5 3.5-1.6 7.4-1.6 11-2.8 3.7-1.2 5.7-5.3 7.4-8.3 2.6-4.6 4.6-8.9 5.9-14 1.1-4.2 1.5-8.6 1.7-12.9 0-.8.5-2.6.5-2.6 2.6-6.7 4.4-13.6 6.1-20.7 1.5-7.6 3.5-15.8 1.9-22.8zm-1.8 9.3c-.4 4.4-1.3 8.7-2.2 12.9-1.4 6.5-3.3 12.9-5.5 19.3-.4.2-.8 2.9-.9 4-.2 3.9-.7 7.8-1.5 11.8-1.1 5-3.1 9.2-5.5 13.6-1.8 3.4-3.7 7.4-7.9 8.5-1.8.5-3.7.7-5.3 1.1 0-.7-.8-1.2-1.4-.7-1.7 1.1-5.3 3.7-5.3 3.9-3.5 2.5-7.4 4.8-11.6 4.6-3.1-.2-6.3-2-8.6-3.5-.8-.4-3-2.1-3.3-2.3-1.4-1.1-2.7-2-4.2-3-.8-.5-1.4.2-1.4 1.1l-4.1-.9c-3.9-.9-5.9-3.7-8.1-6.9-3.5-5.1-5.9-10.5-7.5-16.5-.5-2-1.3-3.9-1.8-6-.8-3-1.7-5.5-3.3-8.1-1.8-3-2.4-6.2-3.1-9.5-.8-3.2-1.4-6.5-2-9.9-.9-5-2-9.7-2.6-14.9-.4-4.4-.4-9.4 2.2-13.3 1.1 0 2.2-.2 3.5.2 1.8.5 3.5 1.8 5 3 2.6 2 4.8 4.2 7.2 6.4 5.5 4.8 11.2 15.2 17.5 16.3 1.4-1.2 2.6-2.6 3.7-4.2 1.7 1.1 3.3 2 5.3 2.1 1.1.2 2-.2 3-.7 1.7-.9 2-.7 3.7.2 1.4.7 3.1.9 4.4-.2.5-.4 1.1-1.2 1.8-1.2.5 0 1.4 1.2 1.8 1.4 1.3 1.1 2.7 1.1 4.2.7l2.2-.7c.5 0 1.4 0 1.8-.4 3.1-3.4 6.1-6.9 9.2-10.1 3.5-3.7 7.5-7.4 12.5-9.4 3-1.2 6.8-1.6 8.1 1.8.7 2.8.3 6.3 0 9.5z"/></g><path fill="#EDA65B" d="M239.4 133.3c-.5-1.8-1.8-3-3.7-3.4-1.4-.4-3 0-4.2-.2.2-1.2 1.1-5.1-1.7-4.8-1.4 0-3 4.2-3.9 5.3-1.4 2.1-2.4 1.6-2.6-.9-.4-2.5.9-5.9-1.1-6.4-1.4-.2-2.6 2.6-3.1 4.4-.2.9-1.1 1.6-.8-4.6 0-1.6 0-5.9-.9-6h-.4c-2.6.2-4.4 10.1-5.2 12.9-.5-2.8-3.5-14.9-5.7-12.2-.5 1.6-.2 2.3-.4 3.9 0 .9-.2 6.9-.9 5.9-.4-1.8-2.4-5.3-3.5-4.8-2 1.8-.4 4.2-.9 6.7-.4 2.5-1.3 3-2.6.7-.8-1.1-2-5.3-3.5-5.5-2.6-.4-1.8 3.5-1.8 4.8-1.3 0-2.7-.4-4.2-.2-1.8.4-3.1 1.4-3.9 3.2-.2.4 0 13.6 12.2 13.8 2 0 3.5-.2 5.2-.9 1.1-.4 2-1.2 3-.5l12.5.9c.9-.7 1.8-1.2 2.7-.9 1.7.7 4.1 2 6.1 2 6.3 0 11.8-2.5 13.6-8.1.7-.2-.1-4.7-.3-5.1z"/><path fill="#fff" d="M188.3 135.2s7.7-.7 9.8.4c4.1 2 4.6 6.4 4.6 5.9 0 0-2.4.9-3.1.9-1.3.2-3 .4-3.9.4-6.2-.8-7.4-7.6-7.4-7.6z"/><g><path fill="#fff" d="M236.9 136.3s-7.5-1.1-9.8-.2c-4.2 1.8-5 6.2-5 5.6 0 0 2.4.9 3 1.1 2 .5 3 .5 3.9.5 6.4-.3 7.9-7 7.9-7z"/><path fill="#fff" d="M222.5 141.6c.5.2 2.4.9 3 1.1 1.4.4 2.4.5 3.3.5h.4c5.5-.2 7.4-5.9 7.5-6.7-.8-.2-4.1-.5-6.4-.5-1.4 0-2.4.2-3 .4-3.5 1.3-4.6 4.5-4.8 5.2z"/></g><path fill="#F4783F" d="M206.1 154.2c-.5-2.8.2-5.6.8-8.5 0 0 1.8-6 4.8-6.5 7.5-1.4 8.3 15.2 8.3 15.2-8.9 3.8-13.9-.2-13.9-.2z"/><path fill="#EDA65B" d="M232.6 156.3c-.5-1.2-2.7-2.3-4.4-2.5-3.5-.4-15.4 2.3-15.4 2.3v.1c-1.6-.4-12.2-3.3-15.4-3-1.7.2-4.1 1.1-4.6 2.3-.9 1.8.2 4.1 1.1 6 1.1 2.1 3.7 5.3 6.3 6.9 1.1.7 2.2 1.1 3.3 1.1 9.2.2 9.8-5.3 9.8-5.1l.1-.9c.4 0-.8 5.6 8.3 5.6 1.1 0 2.2.4 3.3-.2 2.6-1.6 5.3-4.6 6.4-6.7.9-1.8 2.2-4 1.2-5.9z"/><path fill="#CF4B28" d="M205.9 154.5c.4-1.1 7.4.2 7.4.2s6.1-1.4 7 .2c.2.4-.8 1.6-.8 1.6s-2.6-.2-3.1.4c-.8.7-1.1 4.1-.9 4.1.2 0-1.3 1.8-2 1.8-.5 0-2.2-1.2-2-1.4.2-.2-.2-3.7-1.1-4.4-.5-.5-2.6.2-3.3-.2-.4-.7-1.2-2.3-1.2-2.3z"/><path fill="#131841" d="M198.3 134.9c-.9-.4-2.4-.5-5-.5s-5 .2-5.2.2h-.7v.7s1.4 7.2 8.1 8c.2 0 3.1 0 4.2-.2.5-.2 3.5-.9 3.5-.9s.1-5.5-4.9-7.3zm1.1 6.5c-.9.4-2.7.4-3.5.4-2.4-.2-4.2-1.4-5.5-3.5-.6-.9-.9-1.8-1.1-2.5.9 0 2.4-.2 4.2-.4h1.2c-.2 1.4-.5 5 1 4.8 1.4-.3 1.7-3 1.8-4.3.1 0 .2.1.2.1 2.6 1.2 3.7 3.7 4.1 4.8-1 .3-2 .6-2.4.6z"/><path fill="#131841" d="M237.2 135.6c-.2 0-3.8-.5-6.8-.5-1.7 0-2.6.2-3.3.4-3.1 1.2-4.6 3.9-5.2 5.3l-.3 1.6 3.7 1.2c1.4.4 2.6.5 3.5.5h.6c6.6-.4 8.5-7.6 8.5-7.6l.2-.7-.9-.2zm-2.5 3.7c-1.1 2.8-5.9 3.4-6.1 3.4-.8 0-1.8-.2-3.1-.5-.4-.2-1.3-.5-2.2-.9.4-1.1 1.7-3.4 4.2-4.4 0 1.4.3 4 1.7 4.3 1.3.3 1.3-3.1 1.2-4.6 2 0 4.4.2 5.6.4-.2.6-1 1.2-1.3 2.3z"/><path fill="#EDA65B" d="M179.7 146c1.1 2.8 3.1 5 5.9 6.4 1.8 1.1 3.5-1.8 1.7-2.8s-3.5-2.5-4.2-4.4c-.9-2-4.2-1.1-3.4.8z"/><path fill="#EDA65B" d="M239.8 152.4c2-1.4 4.2-2.6 5.5-5 1.1-1.8-1.8-3.5-3-1.6-.9 1.6-2.7 2.6-4.4 3.7-.8.5-1.1 1.4-.5 2.3.4.8 1.7 1.1 2.4.6z"/><path fill="#131841" d="M205.6 169.9c-.4 0-.8-.4-.8-.7s.2-.7.8-.7c6.6-.5 7.2-4.4 7.4-4.6 0-.4.4-.7.8-.5.4 0 .8.4.8.7 0 .2 0 3.9 7 4.1.4 0 .8.4.8.7s-.4.7-.8.7c-3.5 0-5.9-1.1-7.4-2.8-.2-.2-.4-.5-.4-.7-1.4 1.5-3.6 3.5-8.2 3.8z"/><g><path fill="#CF4B28" d="M220.1 155.1c.2.4-.8 1.6-.8 1.6s-2.6-.2-3.1.4c-.8.7-1.1 4.1-.9 4.1.2 0-1.3 1.8-2 1.8-.5 0-2.2-1.2-2-1.4.2-.2-.2-3.7-1.1-4.4-.5-.5-2.6.2-3.3-.2-.5-.2-1.1-1.8-1.1-1.8"/><path fill="#131841" d="M213.3 163.6c-.9 0-3-2.3-2.7-2.5 0-.7-.4-3.2-.8-3.7h-1.3c-.8 0-1.4.2-1.8-.2-.8-.4-1.3-1.6-1.4-2.1-.2-.4 0-.7.4-.9.4-.2.8 0 .9.4.2.7.8 1.4.9 1.4h1.1c.9 0 1.7-.2 2.2.4 1.1.9 1.3 3.9 1.3 4.1v.7c.4.4.9.7 1.3.9.4-.2.9-.9 1.3-1.2 0-.4 0-.9.2-1.8.4-2 .9-2.5 1.1-2.6.5-.5 2.2-.5 3.3-.5.2-.4.4-.5.4-.7 0-.4 0-.5.4-.7.4-.2.8-.2.9.2.2.2.5.9-.9 2.5-.2.2-.4.4-.5.2-1.1 0-2.4 0-2.6.2-.4.4-.8 2.5-.8 3.2v.4c-.3.1-1.8 2.1-2.9 2.3z"/></g></g><path fill="#fff" d="M173 132.1c3.1-2.8 5-9 5.7-14-.2.7 5.3.9 8.5-2.5 2.2-2.3.9-4.1-.4-6.9-3.5-7.2-9.4-12.9-15.1-18.2-1.4-1.4-3-5-5.5-4.1-2 .7-1.8 6.5-1.4 8.3 2.2 15.3 8.2 37.4 8.2 37.4z"/><path fill="#fff" d="M249.4 130.5c-3-2.8-6.1-8.7-6.6-13.5 0 .7-5.3.7-8.3-2.6-2-2.3-.8-3.9.8-6.4 3.9-6.5 9.9-11.7 15.8-16.6 1.7-1.2 3.3-3 5.7-2 2 .9 1.4 4.8 1.1 6.4-3 17-8.5 34.7-8.5 34.7z"/><path fill="#ED662B" d="M249.7 107.5c-4.1 1-8.5 3.3-10.4 7.1-.9-4.5 3.4-9.5 6.9-11.9 1.1-.7 0-2.5-1.1-1.8-4.4 3.2-9 9.2-7.7 14.7.2.6.8.8 1.2.7l-.1.6c-.2 1.2 1.8 1.8 2 .5.9-4.4 5.5-6.9 9.8-8 1.3-.3.7-2.3-.6-1.9z"/><path fill="#ED662B" d="M176 102.7c-1.1-.7-2 .9-1.1 1.8 2.9 2.1 6.5 6.3 6.9 10.1-1.9-3.8-6.2-6.1-10.4-7.1-1.3-.4-1.8 1.6-.5 2 4.2 1.1 8.8 3.5 9.8 8 .2.8 1.1.9 1.6.5.5.3 1.3.2 1.5-.5 1.4-5.6-3.4-11.8-7.8-14.8z"/><path fill="#131841" d="M186.1 105.7c-3.1-5.3-7.5-9.7-12-14l-4.8-5.3c-.9-.9-2.7-1.2-3.9-.2-2.4 2.1-1.8 6.7-1.4 9.5.8 5.5 1.8 10.8 3.1 16.1 1.4 6.9 3.1 13.6 5 20.3 0 .4.4.5.5.5.2.2.5 0 .9-.2 3.5-3.4 5-8.5 5.7-13.3 2.2.4 5.9-1.2 6.8-1.8 5.4-2.8 2.5-7.7.1-11.6zm-1.3 11c-.9.5-2 .9-3.1 1.1-.4 0-2 0-2 .2-.2-.7-1.4-.9-1.7 0-.8 4.2-1.8 9-4.6 12.4-3.1-11.5-5.9-23.3-7.7-35-.4-2-.5-10.6 3.1-6.9l3.5 4.1 5 5c3.5 3.5 6.4 7.6 8.6 12 .5 1.1 1.1 2 1.3 3 .9 1.6-.9 3.2-2.4 4.1z"/><path fill="#131841" d="M254.7 88.2c-1.7.2-3.1 1.4-4.2 2.5-2.2 2-4.4 3.7-6.6 5.6-4.1 3.7-7.4 7.8-10.1 12.4-2.2 3.7-.4 6.7 3.5 8.5.8.4 3.3 1.2 5 1.1.9 4.8 3.3 9.4 6.6 12.7.4.2.5.2.9.2.2 0 .4-.2.5-.5 2-6.4 3.7-12.9 5.3-19.5 1.3-5.3 2.6-11 3.3-16.5.2-3 0-6.7-4.2-6.5zm2.4 6.2c-.8 8-3.1 16.1-5.2 23.9-.9 3.5-1.8 7.1-3 10.5-3-3.4-4.8-7.6-5.5-12-.2-.9-1.4-.7-1.7 0 .2-.5.4-.4-.4-.2-.8 0-1.4-.2-2.2-.4-2-.5-5-2-5.2-4.2-.2-1.6 1.7-3.7 2.6-5.1 1.3-2 2.7-3.7 4.2-5.5 2.7-3 5.7-5.5 8.8-8.1 1.3-1.1 2.6-2.3 4.2-3.2 3.6-1.9 3.6 2.5 3.4 4.3z"/><g><path fill="#ED662B" d="M186.5 168.5c-3.3 10.5-10.1 16.5-11.4 27.3"/><path fill="#131841" d="M185.4 168.3c-3.1 9.5-10.1 17.3-11.4 27.4-.2 1.2 1.2 3.8 2 0 1.3-9.9 8.5-17.7 11.4-26.9.3-1.2-1.7-1.7-2-.5z"/></g><path fill="#131841" d="M238.7 169.4c3.9 8.7 9.8 16.3 12.2 25.5.4 1.2 2.7.7 2.5-.5-2.4-9.4-8.9-17.1-13-26-.4-1.2-2.3-.2-1.7 1z"/></g><g><g><path fill="#676868" d="M248.9 142.1c-.5.6-1.1 1.1-1.7 1.6-4.7 4-10.6 6.7-16.5 8.2-1.5.4-3 .7-4.2.8l-2.6.1-5.3 24.4 18.4-6.4s12.2-12.6 15.6-32.8c.2-1.4-3.7 4.1-3.7 4.1zm-8.4 13c.8 0-5.3 10.4-5.4 10.4-.1 0-13.1 4.4-12.4 4.1.7-.3 3.3-5.8 3.4-6.3 0-.5-.1-3.8-.1-3.8.3-.1 13.9-4.4 14.5-4.4z"/><path fill="#131841" d="M219 178.1l-.7-1.9 18.1-6.4c1.3-1.5 9.7-10.7 13.3-27.4l-.1.1s0 .1-.1.1c-.5.5-1 1.1-1.8 1.7-4.4 3.8-10.3 6.7-16.9 8.4-1.7.4-3.1.7-4.3.8l-2.7.1-.1-2 2.6-.1c1-.1 2.4-.4 4-.8 6.3-1.6 11.9-4.4 16.1-8 .6-.6 1.1-1 1.5-1.5l1.7-2.2c1.7-2.2 1.6-3 2.5-2.6.4.2.8.6.6 1.3-3.3 20.3-14.7 33-15.2 33.5-.1.1-.2.2-.4.2l-18.1 6.7z"/></g><g><path fill="#676868" d="M199.8 152.8l-2.6-.1c-1.2-.1-2.6-.4-4.2-.8-5.9-1.5-11.8-4.2-16.5-8.2-.6-.5-1.2-1-1.7-1.6 0 0-3.9-5.5-3.7-4.1 3.3 20.2 15.6 32.8 15.6 32.8l18.4 6.4-5.3-24.4zm-16.4 2.2c-.3-.8 13.7 3.7 14 3.8 0 0 1.1 4.2 1.2 4.6 0 .5 2.6 6 3.4 6.3.7.3-12.2-4.1-12.4-4.1-.2-.1-5.9-9.9-6.2-10.6z"/><path fill="#131841" d="M204.8 178.1l-18.4-6.4-.4-.2c-.5-.5-11.5-13.1-14.9-33.4-.1-.7.3-1.1.6-1.3.8-.3 1.5.2 3.2 2.4.8 1 7.3 8.4 18.3 11.8 1.5.5 2.9.7 4 .8l2.6.1-.1 2-2.6-.1c-1.2-.1-2.7-.3-4.4-.8-14.1-4.7-18.6-11.5-19-12.1 3.6 16.7 12.3 27.7 13.6 29.1l18.1 6.4-.6 1.7z"/></g><g><path fill="#676868" d="M210.2 179.3l-4.8-2.1-5.1-10.3c-2.1-3.1-2.6-7-1.3-10.6l3.6-10.3 5.5-4.5 2.8-5.3h2.7l2.8 5.3 5.5 4.5 3.9 11.1c1.1 3 .7 6.4-1.1 9l-.5.7-5.1 10.3-5.8 2.1h-3.1z"/><path fill="#131841" d="M213.4 180.3h-3.4l-5.3-2.4-5.3-10.5c-2.2-3.4-2.8-7.6-1.4-11.4l3.7-10.5 5.5-4.5 3-5.6h3.9l3 5.6 5.5 4.5 4 11.3c1.2 3.3.7 7-1.2 9.9l-.4.7-5.3 10.6-6.3 2.3zm-3-2h2.6l5.3-1.9 5-10 .5-.7c1.6-2.4 2-5.4 1-8.1l-3.8-10.8-5.4-4.4-2.6-4.9h-1.5l-2.6 4.9-5.4 4.4-3.6 10c-1.1 3.2-.7 6.8 1.2 9.7l.1.1 5 10 4.2 1.7z"/></g><g><path fill="#676868" d="M212.6 127.9l-5.7.2-2.9-5.3-4.2-16.1 3.9-.8 4.5-.9c2.6-.5 5.2-.5 7.8 0l4.2.8 3.9.8-4.2 16.1-2.9 5.3-5.7-.2"/><path fill="#131841" d="M217.5 129.2l-5.6-.2-5.6.2-3.3-6-4.5-17.2 4.9-1 4.5-.9c2.6-.5 5.4-.5 8.2 0l9.1 1.8-4.5 17.2-3.2 6.1zm-12.6-6.7l2.6 4.7 3.8-.1v-.1h1.4v.1l3.8.1 2.6-4.7 3.9-14.9-7-1.4c-2.5-.5-5-.5-7.4 0l-7.4 1.4 3.7 14.9z"/></g><path fill="#131841" d="M218.3 125.3c-.3-.3-.8-.6-1.4-.9l-.9-.6c-2.2-1.5-4.3-1-4.4-1l-.5-1.9c.1 0 3-.7 6 1.2l.8.5c.7.4 1.3.8 1.7 1.2l-1.3 1.5z"/><path fill="#131841" d="M219.2 122.7c-.2-.2-.9-.6-1.5-.9l-1.2-.7c-2.3-1.5-5.2-1.1-5.2-1l-.3-2c.1 0 3.6-.6 6.6 1.3.3.2.7.4 1.1.6.8.4 1.5.8 2 1.3l-1.5 1.4z"/><path fill="#131841" d="M220.7 116.6l-1.3-.7c-1.7-.9-3.3-1.5-4.7-1.6-1.4-.1-2.7-.2-3.9-.2v-2c1.3 0 2.6.1 4.1.2 1.8.2 3.6.8 5.5 1.9l1.3.7-1 1.7z"/><path fill="#131841" d="M221.2 114.1c-2.4-1.8-5.5-2.5-10-2.4v-2c5-.1 8.5.8 11.2 2.8l-1.2 1.6z"/><path fill="#131841" d="M214.1 127.9l-1.7-1c4.5-8 5.8-20.6 5.8-20.8l2 .2c-.1.6-1.4 13.3-6.1 21.6z"/><path fill="#131841" d="M222.8 170.3c-.4 0-.8-.3-.9-.7-.2-.5.1-1.1.6-1.3l11.1-3.8 5-8.1c-3 1.3-7.8 3-12.2 3-.5 0-1-.4-1-1 0-.5.4-1 1-1 6.6-.1 14.3-4.2 14.4-4.3.4-.2.9-.1 1.2.2.3.3.4.8.1 1.2l-6.9 11.2c-.1.2-.3.3-.5.4l-11.4 3.9c-.3.3-.4.3-.5.3z"/><path fill="#131841" d="M205.5 125.3l-1.4-1.4c.4-.4 1.1-.8 1.7-1.2.3-.2.6-.3.8-.5 3-2 5.8-1.2 6-1.2l-.5 1.9.2-1-.2 1c-.1 0-2.2-.5-4.4 1l-.9.6c-.4.2-1 .5-1.3.8z"/><path fill="#131841" d="M204.6 122.7l-1.5-1.4c.4-.4 1.2-.8 2-1.3.4-.2.8-.4 1.1-.6 3-1.9 6.5-1.4 6.6-1.3l-.3 2s-2.9-.4-5.2 1c-.3.2-.8.5-1.2.7-.6.3-1.3.7-1.5.9z"/><path fill="#131841" d="M203.1 116.6l-1-1.7 1.3-.7c1.9-1.1 3.8-1.7 5.5-1.9 1.4-.1 2.8-.2 4.1-.2v2c-1.2 0-2.5.1-3.9.2-1.5.1-3.1.7-4.7 1.6l-1.3.7z"/><path fill="#131841" d="M202.6 114.1l-1.2-1.6c2.8-2.1 6.2-3 11.2-2.8v2c-4.6-.2-7.7.6-10 2.4z"/><path fill="#131841" d="M209.7 127.9c-4.7-8.3-6-21-6.1-21.5l2-.2c0 .1 1.4 12.8 5.8 20.8l-1.7.9z"/><g><path fill="#676868" d="M206.9 128.2c1 9.5 4.7 7.8 4.7 7.8h1s3.3 1.7 4.3-7.8c0 0-3.9-.3-5.2-.3-1.2 0-4.8.3-4.8.3z"/><path fill="#131841" d="M213.1 137.1c-.3 0-.6-.1-.7-.1h-.6c-.2.1-.5.1-.8.1-1.9 0-4.3-1.5-5.1-8.8l-.1-1 1-.1c.2 0 3.7-.3 4.9-.3 1.3 0 5.1.2 5.2.3l1 .1-.1 1c-.7 7.3-3 8.8-4.7 8.8zm-.1-2h.1c.7 0 2-1.3 2.7-6-1.2-.1-3.2-.2-4.1-.2-.8 0-2.6.1-3.7.2.6 4.4 1.9 6 3 6h.2l.2-.1h1.5l.1.1z"/></g><path fill="#131841" d="M201 170.3c-.1 0-.2 0-.3-.1l-11.4-3.9c-.2-.1-.4-.2-.5-.4l-6.9-11.2c-.2-.4-.2-.9.1-1.2.3-.3.8-.4 1.2-.2.1 0 7.8 4.2 14.4 4.3.5 0 1 .5 1 1s-.4 1-1 1c-4.5 0-9.2-1.7-12.2-3l5 8.1 11.1 3.8c.5.2.8.7.6 1.3-.3.2-.7.5-1.1.5z"/></g><path fill="#131841" d="M216.7 310.2c-.5 0-.9-.4-1-.9 0-.2-1.5-16.5-1.6-32.9 0-2.3 0-4.5-.1-6.5-.1-9.3-.2-16 .1-17.9 0-.1.1-.4.1-.8.5-4.3 1-7.3 1.8-8.3 3-4 3.4-16.2 3.5-20.2 0-1 0-1.5.1-1.7.1-.5.5-.9 1.1-.9.5.1.9.6.9 1.1 0 .2 0 .8-.1 1.5-.2 7.8-.8 17.3-3.9 21.3-.3.4-.7 1.9-1.4 7.3-.1.5-.1.8-.1.9-.3 1.7-.2 8.7-.1 17.5 0 2.1 0 4.2.1 6.5.1 16.3 1.6 32.6 1.6 32.8.1.6-.3 1.1-1 1.2z"/><path fill="#131841" d="M240.4 297.5c-.4 0-.8-.3-.9-.7-.1-.2-1.4-4.5-1.4-14.1 0-10.7 4.3-23.6 7.1-32.2.8-2.4 1.5-4.5 1.9-6 4.4-16 6.4-46.2 3.5-52.9-.2-.5 0-1.1.5-1.3.5-.2 1.1 0 1.3.5 3.1 7.2 1.3 37.6-3.4 54.3-.4 1.6-1.1 3.7-2 6.1-2.8 8.4-7 21.1-7 31.5 0 9.2 1.3 13.5 1.3 13.5.2.5-.1 1.1-.7 1.2 0 0-.1.1-.2.1z"/><path fill="#131841" d="M210.1 308.6c-.6 0-1-.5-1-1.1 0-.3 1.8-29.4 1.9-29.8.1-2.6.1-3.6.1-4.9 0-.9-.1-1.8-.1-3.5v-2.2c.1-10.1.2-21.5-.8-23-2.2-3.6-3.3-14.2-3.9-21.8-.1-.6-.1-1.1-.1-1.3-.1-.5.3-1 .9-1.1.5-.1 1 .3 1.1.9 0 .2.1.7.1 1.3.9 11.5 2.1 18.5 3.6 20.9 1.2 1.9 1.2 10 1.1 24.1v2.2c0 1.6 0 2.5.1 3.4 0 1.3.1 2.4-.1 5.1 0 .4-1.8 28.6-1.9 29.8 0 .6-.5 1-1 1z"/><path fill="#131841" d="M184.5 302.5h-.3c-.5-.1-.8-.7-.7-1.2 0-.1 2.2-8.6 2.3-17.8 0-8.4-3.2-18.6-5.8-26.8-1.5-4.8-2.8-9-3.1-11.7-.5-5-1.2-9.5-1.8-13.8-2.2-15-4-26.8 2.1-46.1.2-.5.7-.8 1.2-.6.5.2.8.7.6 1.2-6 18.8-4.3 30.4-2.1 45.2.6 4.3 1.3 8.8 1.9 13.9.3 2.5 1.6 6.6 3.1 11.3 2.6 8.3 5.9 18.7 5.9 27.4 0 9.5-2.2 18-2.3 18.3-.2.4-.6.7-1 .7z"/><g><g><path fill="#EDA65B" d="M211.9 299.9c-2.7-6.4-8.5-2.3-10.3-3.3-2.7-1.5-3.2-2.6-6.6-2.4-3.4.2-4.5 1.6-6.2 1.9-.5.1-2.6-.6-3.7-.3-2.5.8-4.4 2.5-4.9 5.7-.1.9 0 4.5.1 5.4l.6 3.2s.3 1.7 2.8 2.2c3.8.7 5.7-1.1 5.7-1.1s2.5 2.7 8 1.3c1.2-.3 1.7-1.3 2.4-1.2.7 0 1.3.9 2.6 1.2 2.6.5 5.2.5 6.7-.3 1.9-1 2.3-3 2.3-3s1.5-6.9.5-9.3z"/><path fill="#131841" d="M194.4 314.1c-2.5 0-4.2-.9-5-1.4-.7.4-2.1 1-3.9 1-.6 0-1.3-.1-1.9-.2-3.1-.6-3.6-2.9-3.6-3l-.6-3.2v-.1c-.1-.9-.2-4.7-.1-5.7.5-3.3 2.4-5.5 5.5-6.5.3-.1.6-.2 1.1-.2.7 0 1.4.1 2 .3.3.1.6.1.8.1.5-.1.9-.3 1.5-.6 1.1-.5 2.5-1.2 4.9-1.3h.7c2.3 0 3.4.7 4.7 1.5.5.3 1 .6 1.7 1h.3c.4 0 1-.1 1.6-.2.9-.2 1.8-.3 2.9-.3 2.8 0 4.7 1.4 6 4.3 1.1 2.6-.2 9.3-.4 10.1 0 .1-.6 2.4-2.8 3.6-.9.5-2.2.7-3.7.7-1.1 0-2.4-.1-3.7-.4-.9-.2-1.5-.6-2-.9l-.4-.3-.4.3c-.4.3-1 .7-1.8.9-1.3.3-2.3.5-3.4.5zm-5-3.7c.3 0 .5.1.7.3 0 0 1.4 1.4 4.3 1.4.9 0 1.8-.1 2.8-.4.4-.1.7-.3 1.1-.6.4-.3.9-.7 1.6-.7.6 0 1 .3 1.5.6.4.3.8.5 1.3.6 1.2.2 2.3.3 3.3.3 1.2 0 2.2-.2 2.8-.5 1.4-.8 1.8-2.3 1.8-2.3.5-2.6 1.1-7.3.5-8.9-1.2-2.7-2.8-3.1-4.1-3.1-.8 0-1.7.2-2.5.3-.7.1-1.4.3-1.9.3s-.9-.1-1.2-.3c-.7-.4-1.3-.8-1.8-1.1-1.2-.8-1.9-1.2-3.6-1.2h-.6c-2 .1-3.1.6-4.1 1.1-.6.3-1.2.6-2 .7-.4.1-.9 0-1.5-.1-.5-.1-1.1-.2-1.6-.2h-.4c-2.5.8-3.8 2.4-4.2 4.9-.1.7 0 4.2.1 5.1l.6 3.2c0 .1.3 1.1 2 1.4.5.1 1.1.1 1.6.1 2.2 0 3.3-.9 3.3-1-.2.2 0 .1.2.1z"/></g><g><path fill="#EDA65B" d="M194.9 303.4c-.6.4-.9 3.7.2 5.2"/><path fill="#131841" d="M195 309.6c-.3 0-.6-.2-.8-.4-1-1.4-1-3.9-.7-5.2.2-.7.4-1.2.9-1.4.5-.3 1.1-.1 1.4.4.2.4.1.9-.2 1.2-.3.6-.3 2.9.3 3.9.3.5.2 1.1-.3 1.4-.2.1-.4.1-.6.1z"/></g><g><path fill="#EDA65B" d="M204.8 304.1c-1 1.3-.6 3.9 0 5.1"/><path fill="#131841" d="M204.8 310.2c-.4 0-.7-.2-.9-.5-.8-1.5-1.2-4.5.1-6.2.3-.4 1-.5 1.4-.2.4.3.5 1 .2 1.4-.7.9-.4 3.1.1 4.1.3.5.1 1.1-.4 1.3l-.5.1z"/></g><g><path fill="#EDA65B" d="M185.5 303.4c-.6 1-.5 3.1 0 5.4"/><path fill="#131841" d="M185.5 309.8c-.5 0-.9-.3-1-.8-.3-1.3-.9-4.4.1-6.1.3-.5.9-.6 1.4-.4.5.3.6.9.4 1.4-.3.6-.5 2.3.1 4.7.1.5-.2 1.1-.7 1.2h-.3z"/></g></g><g><g><path fill="#EDA65B" d="M214.9 299.9c2.7-6.4 8.5-2.3 10.3-3.3 2.7-1.5 3.2-2.6 6.6-2.4 3.4.2 4.5 1.6 6.2 1.9.5.1 2.6-.6 3.7-.3 2.5.8 4.4 2.5 4.9 5.7.1.9 0 4.5-.1 5.4l-.6 3.2s-.3 1.7-2.8 2.2c-3.8.7-5.7-1.1-5.7-1.1s-2.5 2.7-8 1.3c-1.2-.3-1.7-1.3-2.4-1.2-.7 0-1.3.9-2.6 1.2-2.6.5-5.2.5-6.7-.3-1.9-1-2.3-3-2.3-3s-1.5-6.9-.5-9.3z"/><path fill="#131841" d="M232.4 314.1c-1 0-2.1-.1-3.2-.4-.8-.2-1.4-.6-1.8-.9l-.4-.3c-.1 0-.3.2-.4.3-.5.3-1.1.7-2 .9-1.3.3-2.6.4-3.7.4-1.5 0-2.8-.3-3.7-.7-2.2-1.2-2.8-3.5-2.8-3.6-.2-.8-1.5-7.5-.4-10.1 1.2-2.9 3.2-4.3 6-4.3 1 0 2 .2 2.9.3.6.1 1.2.2 1.6.2h.3c.7-.4 1.2-.7 1.7-1 1.3-.8 2.4-1.5 4.7-1.5h.7c2.4.1 3.8.8 4.9 1.3.5.3 1 .5 1.5.6.1 0 .5-.1.8-.1.6-.1 1.3-.3 2-.3.4 0 .7 0 1.1.2 3.2 1.1 5 3.3 5.5 6.5.2 1 0 4.8-.1 5.7v.1l-.6 3.2c0 .1-.4 2.4-3.6 3-.7.1-1.3.2-1.9.2-1.9 0-3.2-.6-3.9-1-1 .4-2.7 1.3-5.2 1.3zm-5.4-3.7c.7 0 1.1.4 1.6.7.3.2.7.5 1.1.6 1 .2 1.9.4 2.8.4 2.9 0 4.2-1.3 4.3-1.4.4-.4 1-.4 1.4 0 0 0 1.1 1 3.3 1 .5 0 1 0 1.6-.1 1.7-.3 2-1.3 2-1.4l.6-3.2c.1-.9.2-4.4.1-5.1-.4-2.5-1.7-4.1-4.2-4.9h-.4c-.5 0-1.1.1-1.6.2-.7.1-1.1.2-1.5.1-.7-.1-1.3-.4-2-.7-1-.5-2.1-1-4.1-1.1h-.6c-1.7 0-2.4.4-3.6 1.2-.5.3-1.1.7-1.8 1.1-.3.2-.8.3-1.2.3-.6 0-1.2-.1-1.9-.3-.8-.1-1.7-.3-2.5-.3-1.3 0-3 .3-4.1 3.1-.7 1.5-.1 6.3.5 8.9 0 0 .4 1.5 1.8 2.3.6.3 1.6.5 2.8.5 1 0 2.1-.1 3.3-.3.5-.1.9-.4 1.3-.6-.1-.7.4-1 1-1z"/></g><g><path fill="#EDA65B" d="M231.9 303.4c.6.4.9 3.7-.2 5.2"/><path fill="#131841" d="M231.8 309.6c-.2 0-.4-.1-.6-.2-.5-.3-.6-.9-.3-1.4.7-1 .6-3.3.3-3.9-.3-.3-.4-.8-.2-1.2.3-.5.9-.6 1.4-.4.4.2.7.7.9 1.4.3 1.3.3 3.8-.7 5.2-.2.4-.5.5-.8.5z"/></g><g><path fill="#EDA65B" d="M222 304.1c1 1.3.6 3.9 0 5.1"/><path fill="#131841" d="M222 310.2c-.2 0-.3 0-.5-.1-.5-.3-.7-.9-.4-1.3.5-1 .7-3.2.1-4.1-.3-.4-.2-1.1.2-1.4.4-.3 1.1-.2 1.4.2 1.2 1.7.8 4.7.1 6.2-.2.3-.6.5-.9.5z"/></g><g><path fill="#EDA65B" d="M241.3 303.4c.6 1 .5 3.1 0 5.4"/><path fill="#131841" d="M241.3 309.8h-.2c-.5-.1-.9-.7-.7-1.2.6-2.4.5-4.1.1-4.7-.3-.5-.1-1.1.4-1.4.5-.3 1.1-.1 1.4.4 1 1.7.4 4.9.1 6.1-.3.5-.7.8-1.1.8z"/></g></g></g><path fill="#A79E9E" stroke="#A79E9E" stroke-width=".6" stroke-miterlimit="10" d="M240.6 243.7"/><path fill="#131841" d="M291.7 311.4c-8.6 0-20.1-2.7-24.5-5.3-2.9-1.7-12.3-8.1-13.1-18.1-.3-3.6 1.2-7.7 3.2-8.9 3.1-1.9 7.2-1.4 9.9 1.2 7 6.9 22.7 10.5 30.6 7.1.5-.2 1.1 0 1.3.5.2.5 0 1.1-.5 1.3-9.4 4.1-25.9-.7-32.8-7.5-2-2-5.2-2.4-7.4-1-1.2.8-2.5 4.1-2.3 7.1.7 9.1 9.5 15 12.1 16.6 4.2 2.5 17.5 5.7 26.2 4.9 10.2-.9 16.4-3.1 18-6.4 2.4-5 2.9-9.6 1.2-13-1.2-2.5-3.4-4.2-6.2-4.8-1.5-.3-3.5-.3-5.8-.3-7.7 0-19.3 0-29.9-12.8-.4-.4-.3-1.1.1-1.4.4-.4 1.1-.3 1.4.1 10 12.1 20.6 12.1 28.4 12.1 2.4 0 4.5 0 6.2.4 3.4.7 6.1 2.9 7.6 5.9 1.9 4 1.5 9.2-1.2 14.7-1.9 4-8.6 6.5-19.7 7.5-.8.1-1.8.1-2.8.1z"/><g><path fill="#4F4D4E" d="M218.4 159.5l2.7 2-.5 3.5c-.2 1.3-.7 2.6-1.6 3.7l-1 1.3-2.1-.1 2.2-2.6v-5.2l-3.2-2.5h3.5z"/><path fill="#131841" d="M218.3 170.6l-3.8-.2 2.9-3.5v-4.6l-4.4-3.5h5.7l3.2 2.4-.6 3.9c-.2 1.5-.8 2.8-1.7 4l-1.3 1.5zm-1-1.4h.4l.8-1c.8-1 1.3-2.1 1.5-3.4l.4-3.1-2.2-1.6h-1.4l1.9 1.5v5.7l-1.4 1.9z"/></g><g><path fill="#4F4D4E" d="M214.4 159.2v10.7s1.9 3.7 3.3 0c.2-.4.2-10.7.2-10.7"/><path fill="#131841" d="M216.2 172.2c-1.3 0-2.2-1.7-2.4-2l-.1-.1v-10.9h1.3v10.5c.3.6.8 1.1 1.1 1.1.2 0 .5-.3.8-1.2.1-.7.2-6.8.2-10.5h1.3c0 10.4-.2 10.8-.3 10.9-.3 1.5-1 2.2-1.9 2.2z"/></g><g><path fill="#4F4D4E" d="M205.4 159.5l-2.7 2 .1 2.1c.1 2.3 1.1 4.4 2.7 6.1l.2.2 2.1-.1-2.2-2.6v-5.2l3.2-2.5h-3.4z"/><path fill="#131841" d="M205.5 170.6l-.4-.5c-1.7-1.8-2.8-4.1-2.9-6.5l-.2-2.4 3.2-2.3h5.7l-4.4 3.5v4.6l2.9 3.5-3.9.1zm-2.1-8.7l.1 1.7c.1 2.1 1 4.1 2.6 5.7h.5l-1.5-1.8v-5.7l1.9-1.5h-1.4l-2.2 1.6z"/></g><g><path fill="#4F4D4E" d="M209.2 159.2v10.7s-.9 3.2-3.3 0c-.3-.4-.2-10.7-.2-10.7"/><path fill="#131841" d="M207.9 172c-.8 0-1.6-.5-2.5-1.7-.2-.2-.4-.6-.4-11.1h1.3c0 4.5 0 9.5.2 10.4.7.8 1.2 1.1 1.4 1 .3-.1.5-.5.6-.8v-10.6h1.3v10.9c0 .2-.5 1.6-1.7 1.9h-.2z"/></g><g><path fill="#4F4D4E" d="M213.7 159.2v10.7s-1.8 3.2-3.3 0c-.2-.4-.2-10.7-.2-10.7"/><path fill="#131841" d="M212 172c-.9 0-1.6-.6-2.1-1.8-.1-.2-.3-.6-.3-11h1.3c0 3.7.1 9.7.2 10.5.3.6.6 1 .9 1 .3 0 .8-.5 1.1-.9v-10.5h1.3v10.9l-.1.2c-.1 0-1 1.6-2.3 1.6z"/></g><path fill="#131841" d="M213.7 147.2l-.2-.1c-1-.7-2.3-.7-3.3 0l-.2.1-5.5 4.3.5 8.6h4.8c1 1 2.8 1.1 3.9.1l.2-.1h4.9l.4-8.6-5.5-4.3zm-1.1 1.7l.2 9.3-.8.4-.8-.4.1-9.3h1.3zm-6 3.4l2.6-2-.1 7.9h-2.2l-.3-5.9zm10.3 5.9h-2.2l-.1-7.9 2.6 2.1-.3 5.8z"/><g><path fill="#4751A2" d="M218 151.5c1.2.7 3.2 6.2 3.1 10"/><path fill="#131841" d="M221.8 161.6h-1.3c.1-3.8-2-9-2.8-9.4l.6-1.2c1.6.8 3.6 6.9 3.5 10.6z"/></g><g><path fill="#4751A2" d="M205.5 151.9c-.5.8-2.9 5.5-2.8 9.3"/><path fill="#131841" d="M202 161.3c-.1-4.3 2.8-9.6 2.9-9.7l1.2.7c-.6.9-2.8 5.5-2.7 8.9l-1.4.1z"/></g></g></g></svg>
