<svg xmlns="http://www.w3.org/2000/svg" viewBox="0 0 91 16"><path d="M4.5 4.2L.3 8.4l4.2 4.3c.4.4 1 .4 1.4 0 .4-.4.4-1 0-1.4L3.2 8.6l-.8.5 3.5-3.5c.2-.2.3-.4.3-.7 0-.3-.1-.5-.3-.7-.4-.4-1-.4-1.4 0zm11.6 0l4.2 4.3-4.2 4.3c-.4.4-1 .4-1.4 0-.4-.4-.4-1 0-1.4l2.7-2.7.8.5-3.5-3.5c-.2-.2-.3-.4-.3-.7 0-.3.1-.5.3-.7.4-.5 1-.5 1.4-.1zm-7.8 8.7c.5.2 1.1 0 1.3-.5l3.1-7.1c.1-.3.1-.5 0-.8-.1-.2-.3-.4-.5-.6-.5-.2-1.1 0-1.3.5l-3.1 7.1c-.1.3-.1.5 0 .8.1.3.3.5.5.6" fill="#fff"/><g style="line-height:125%;-inkscape-font-specification:Source Sans Pro Bold" font-size="40" font-weight="bold" letter-spacing="0" word-spacing="0" font-family="Source Sans Pro"><path d="M34.35 8.353l-4.048-3.89-1.02 1.152 2.185 1.923h-5.2v1.69h5.2l-2.185 1.923 1.02 1.152 4.05-3.89z" style="-inkscape-font-specification:Source Sans Pro Bold" fill="#9696a2"/><path d="M65.037 8.353l-4.05-3.89-1.02 1.152 2.186 1.923h-5.2v1.69h5.2l-2.185 1.923 1.02 1.152 4.05-3.89z" style="line-height:125%;-inkscape-font-specification:Source Sans Pro Bold" fill="#9696a2"/><path class="st0" d="M45.586 13.483l-5-5v-3l3-2 2 2 2-2 3 2v3z" fill="#e84e1b"/><path d="M89.597 8.962v1h-2v-1h1l-1-2 1-2h-1v-3h-1v1h-1v1h1v1h-1l-1 2 1 2h1v1h-5v-1h2l-1-3 1-2h-2v-3h-1v1h-1v1h1v1h-1l-1 2 1 3h1v1h-3v-8h-1v1h-1v1h1v1h-1l-1 2 1 2h1v1h-2l-2-2v1l3 4h12l3-4h-1zm-12 3h-1v-1h1v1zm3 0h-1v-1h1v1zm3 0h-1v-1h1v1zm3 0h-1v-1h1v1z" fill="#fff"/></g></svg>