<svg xmlns="http://www.w3.org/2000/svg" viewBox="0 0 32 32"><path fill="#fff" d="M23.4 4H8.6C6.1 4 4 6.1 4 8.6v14.7C4 25.9 6.1 28 8.6 28h14.7c2.6 0 4.6-2.1 4.6-4.6V8.6c.1-2.5-2-4.6-4.5-4.6zm1.3 2.8h.5v4h-4.1V6.7l3.6.1zm-12.1 6.7c.8-1.1 2-1.8 3.4-1.8s2.7.7 3.4 1.8c.5.7.8 1.5.8 2.5 0 2.3-1.9 4.2-4.2 4.2s-4.2-1.9-4.2-4.2c0-.9.3-1.8.8-2.5zm13.1 9.9c0 1.3-1 2.3-2.3 2.3H8.6c-1.3 0-2.3-1-2.3-2.3v-9.8h3.6c-.3.8-.5 1.6-.5 2.5 0 3.6 2.9 6.6 6.6 6.6 3.6 0 6.6-2.9 6.6-6.6 0-.9-.2-1.7-.5-2.5h3.6v9.8z"/></svg>