<svg xmlns="http://www.w3.org/2000/svg" width="142" height="200" viewBox="0 0 397.32 559.5"><path d="M1.33 109.33l.07 5c.03 2.75 8 93.8 17.7 202.34L36.74 514l79.3 22.2c43.61 12.21 80.2 22.26 81.3 22.34 1.1.08 38.16-9.87 82.36-22.11 70.87-19.63 80.44-22.58 80.95-25.01.7-3.38 35.41-394.9 35.38-399.09l-.03-3H198.67z" fill="#fff"/><path d="M116.67 537.53l-80-22.36-1.05-5.92C34.7 504 0 116.52 0 111.4c0-1.86 20.26-2.07 198.67-2.07 188.32 0 198.66.12 198.65 2.34-.06 9.55-35.97 402.16-36.86 402.94-1.11.98-155.95 44.12-161.13 44.89-1.46.21-38.66-9.67-82.66-21.97zm132.44-79.01c26.89-7.42 49.28-13.87 49.75-14.34.48-.46 3.62-32.35 7-70.85 3.37-38.5 6.46-72.55 6.88-75.66l.76-5.67H197.33v49.33h62.72l-.62 3c-.35 1.65-1.68 15.83-2.97 31.51-1.36 16.62-2.98 29.15-3.87 30.05-.85.84-13.62 4.75-28.4 8.7l-26.86 7.15v25.13c0 17.15.46 25.13 1.45 25.13.8 0 23.44-6.07 50.33-13.48zM312.73 261c-.88-6.53-8.73-94.16-8.73-97.47 0-2-4.62-2.2-52.67-2.2h-52.66v51.6l23.66.9c13.02.5 26.72 1.27 30.45 1.7l6.77.78 1.64 20.18c.91 11.1 1.99 22.43 2.4 25.18l.75 5h49.16z" fill="#eaebec"/><path d="M116.04 536.2L36.74 514 19.1 316.67C9.4 208.13 1.43 117.08 1.4 114.33l-.07-5H396l.03 3c.03 4.2-34.68 395.7-35.38 399.1-.51 2.42-10.08 5.38-80.95 25-44.2 12.24-81.27 22.19-82.37 22.11-1.1-.07-37.68-10.13-81.3-22.34zm133.13-76.74c27.41-7.62 50.23-14.49 50.7-15.26.48-.76 3.75-34.28 7.28-74.46 3.53-40.2 6.7-74.12 7.05-75.4.61-2.21-4.05-2.34-84.5-2.34h-85.16l3.62-38.33c2-21.09 3.67-38.4 3.73-38.46.06-.06 12.56-.46 27.78-.88 24.95-.7 76.4 1.3 78.12 3.02.65.64 4.88 42.15 4.88 47.81 0 2.8.37 2.84 25.83 2.84h25.84l-.61-5.67c-.33-3.11-2.52-27.26-4.86-53.66l-4.26-48-99.64-.35c-79.27-.27-99.64 0-99.65 1.34 0 .92-.58 6.77-1.29 13-1.7 15.09-14.7 160.83-14.7 164.85v3.16H258.9l-.75 5c-.42 2.75-1.74 16.7-2.93 31-1.2 14.3-2.56 26.37-3.03 26.82-1.24 1.19-51.12 14.51-54.23 14.48-1.45 0-14.33-3.22-28.63-7.14l-26-7.11-.95-11.2c-.52-6.15-1.32-14.94-1.77-19.52l-.82-8.33H89.33l.06 5c.1 9.35 6.17 72.33 7.05 73.21 1.02 1.02 97.91 28.26 100.9 28.36 1.1.04 24.42-6.16 51.83-13.78z" fill="#f0be25"/><path d="M116.04 536.2L36.74 514 19.1 316.67C9.4 208.13 1.43 117.08 1.4 114.33l-.07-5H396l.03 3c.03 4.2-34.68 395.7-35.38 399.1-.51 2.42-10.08 5.38-80.95 25-44.2 12.24-81.27 22.19-82.37 22.11-1.1-.07-37.68-10.13-81.3-22.34zm147.87-29.7c34.88-9.62 64.08-18.17 64.88-19 1.25-1.28 31.37-331.45 31.25-342.5l-.04-3.67H198.67V160H152c-36.44 0-46.67.37-46.68 1.67 0 .91-.58 6.76-1.29 13-1.7 15.08-14.7 160.82-14.7 164.84v3.16h109.34v38.66c0 30.06-.37 38.66-1.67 38.64-.92 0-13.37-3.22-27.67-7.14l-26-7.11-.95-11.2c-.52-6.15-1.32-14.94-1.77-19.52l-.82-8.33H89.33l.06 5c.16 14.3 6.35 72.68 7.8 73.57.88.55 24.07 7.21 51.54 14.81l49.94 13.82v25.07c0 13.78.4 25.06.91 25.06.5 0 29.45-7.87 64.33-17.5zM148.02 254.02c1.92-20.88 3.75-38.2 4.07-38.5.32-.28 10.93-.8 23.58-1.16l23-.63V292H144.54z" fill="#e4a126"/><path d="M126.67 62V49.33h36V0H188v74.67h-61.33zM200 64.67v-10h16.67c9.16 0 16.66-.34 16.66-.76 0-.41-7.5-8.88-16.66-18.81L200 17.03V0h69.33v19.92l-16.27.37-16.28.38 16.95 18.24 16.94 18.25V74.67H200z" fill="#0e0e0f"/></svg>
