<svg xmlns="http://www.w3.org/2000/svg" viewBox="0 0 512 512" width="200" height="200"><title>HTML5 Logo</title><path fill="#E44D26" d="M107.644 470.877L74.634 100.62h362.733l-33.046 370.2L255.78 512"/><path fill="#F16529" d="M256 480.523l120.03-33.277 28.24-316.352H256"/><path fill="#EBEBEB" d="M256 268.217h-60.09l-4.15-46.5H256v-45.412H142.133l1.086 12.183 11.16 125.14H256M256 386.153l-.2.053-50.573-13.656-3.233-36.217H156.41l6.36 71.3 93.02 25.824.21-.058"/><path d="M108.382 0h23.077v22.8h21.11V0h23.077v69.044H152.57v-23.12h-21.11v23.12h-23.077V0zM205.994 22.896h-20.316V0h63.72v22.896h-20.325v46.148h-23.078V22.896zM259.51 0h24.064l14.802 24.26L313.163 0h24.072v69.044h-22.982V34.822l-15.877 24.55h-.397l-15.89-24.55v34.222h-22.58V0zM348.72 0h23.084v46.222h32.453v22.822H348.72V0z"/><path fill="#FFF" d="M255.843 268.217v45.41h55.918l-5.27 58.894-50.647 13.67v47.245l93.094-25.8.683-7.673 10.67-119.55 1.11-12.195H349.16M255.843 176.305v45.409H365.53l.912-10.206 2.07-23.022 1.085-12.183"/></svg>
