<svg width="161" height="47" fill="#fff" xmlns="http://www.w3.org/2000/svg"><path d="M0 18.05v3.61h3.44v-3.6H0zM16.32 6.35c-2.18 0-3.95 1-5.06 2.44h-.12V0H8.29v21.66h2.85v-7.43c0-2.98 1.86-5.11 4.58-5.11 2.58 0 4.08 1.92 4.08 4.5v8.04h2.84v-8.54c0-4.12-2.54-6.77-6.32-6.77zM37.3 6.77h-6.74V1.5h-2.84v5.27h-2.7v2.77h2.7v8.4c0 2.4 1.35 3.72 3.77 3.72h5.81v-2.8h-5.24c-.96 0-1.5-.54-1.5-1.47V9.54h6.74V6.77zM57.63 6.38a5.42 5.42 0 00-4.97 2.89h-.1a5.04 5.04 0 00-4.7-2.9 5.02 5.02 0 00-4.37 2.54h-.12V6.77h-2.72v14.9h2.84v-7.65c0-2.8 1.47-4.84 3.69-4.9 2.1-.06 3.32 1.44 3.32 3.7v8.84h2.85v-7.88c0-3.34 1.97-4.66 3.68-4.66 2.07 0 3.3 1.44 3.3 3.7v8.84h2.84v-9.14c0-3.61-2.04-6.14-5.54-6.14zM67.03 17.81c0 2.44 1.38 3.85 3.92 3.85h2.82V18.9h-2.4c-.96 0-1.5-.54-1.5-1.47V0h-2.84v17.81zM40.5 27.62h-.11a6.5 6.5 0 00-5.31-2.57c-4.41-.06-7.56 3.2-7.56 7.8 0 4.64 3.2 7.9 7.53 7.84a6.35 6.35 0 005.34-2.72h.12v2.3h2.82v-14.8h-2.82v2.15zm-5.03 10.32a4.9 4.9 0 01-5.1-5.09 4.9 4.9 0 015.1-5.08 4.89 4.89 0 015 5.08 4.9 4.9 0 01-5 5.09zM61.96 30.85c-.7-3.35-3.66-5.8-7.56-5.8a7.58 7.58 0 00-7.87 7.8 7.6 7.6 0 007.87 7.84c3.9 0 6.87-2.51 7.56-5.9h-2.97a4.65 4.65 0 01-4.56 3.18 4.92 4.92 0 01-5.04-5.12 4.9 4.9 0 015.04-5.08 4.68 4.68 0 014.56 3.08h2.97zM77.2 27.62h-.12a6.5 6.5 0 00-5.31-2.57c-4.41-.06-7.57 3.2-7.57 7.8 0 4.64 3.22 7.9 7.54 7.84a6.35 6.35 0 005.34-2.72h.12v2.3h2.82v-14.8H77.2v2.15zm-5.04 10.32a4.9 4.9 0 01-5.1-5.09 4.9 4.9 0 015.1-5.08 4.89 4.89 0 015 5.08 4.9 4.9 0 01-5 5.09zM96.22 27.77h-.12a6.47 6.47 0 00-5.35-2.72c-4.32-.06-7.53 3.2-7.53 7.83 0 4.6 3.15 7.87 7.56 7.8a6.48 6.48 0 005.29-2.56h.15v2.15h2.82V18.73h-2.82v9.04zm-5.05 10.2a4.9 4.9 0 01-5.1-5.09 4.9 4.9 0 015.1-5.08 4.9 4.9 0 015.02 5.08 4.89 4.89 0 01-5.02 5.09zM109.78 25.05c-4.56 0-7.69 3.5-7.69 7.83 0 4.22 2.94 7.8 7.75 7.8 3.48 0 6.27-1.88 7.26-5.02h-2.97c-.66 1.4-2.25 2.3-4.17 2.3-2.7 0-4.63-1.79-4.83-4.1h12.27c.39-4.93-2.7-8.81-7.62-8.81zm-.06 2.72a4.5 4.5 0 014.59 3.59h-9.13a4.46 4.46 0 014.54-3.6zM137.62 25.08a5.44 5.44 0 00-4.98 2.87h-.09a5.05 5.05 0 00-4.71-2.87 5.04 5.04 0 00-4.38 2.5h-.12v-2.12h-2.73v14.8h2.85v-7.59c0-2.78 1.47-4.81 3.69-4.87 2.1-.06 3.33 1.43 3.33 3.68v8.79h2.85v-7.84c0-3.32 1.98-4.63 3.7-4.63 2.06 0 3.3 1.43 3.3 3.68v8.79h2.84v-9.1c0-3.58-2.04-6.1-5.55-6.1zM153.38 37.9l-5.1-12.44h-3.15l6.78 16.21-.03.06c-.48 1.23-1.02 1.68-2.34 1.68h-3.51v2.84h3.5c2.59 0 3.97-1.17 4.93-3.68l6.54-17.1h-2.91l-4.71 12.44z"/></svg>