<svg xmlns="http://www.w3.org/2000/svg" viewBox="0 0 630 630" width="200" height="200"><path fill="#f7df1e" d="M0 0h630v630H0z"/><path d="M165.65 526.474l48.212-29.178c9.302 16.492 17.763 30.444 38.058 30.444 19.454 0 31.72-7.61 31.72-37.21v-201.3h59.202v202.137c0 61.32-35.943 89.232-88.385 89.232-47.36 0-74.852-24.53-88.807-54.13M375 520.13l48.206-27.91c12.69 20.722 29.183 35.946 58.36 35.946 24.533 0 40.175-12.265 40.175-29.18 0-20.3-16.067-27.49-43.134-39.327l-14.797-6.35c-42.716-18.18-71.05-41.016-71.05-89.226 0-44.404 33.83-78.238 86.694-78.238 37.637 0 64.702 13.11 84.154 47.366l-46.097 29.602c-10.15-18.183-21.14-25.372-38.056-25.372-17.34 0-28.335 10.995-28.335 25.372 0 17.762 10.995 24.952 36.366 35.948l14.8 6.343c50.325 21.57 78.66 43.557 78.66 93.034 0 53.286-41.866 82.464-98.11 82.464-54.976 0-90.5-26.218-107.836-60.474"/></svg>
