<svg xmlns="http://www.w3.org/2000/svg" viewBox="0 0 153.4 194.2"><path fill="#FFF" d="M77.5.1l-.8-.1L0 8v140.6l76.7 45.6 76.7-45.6V8L77.5.1zm65.9 142.8l-66.7 39.7L10 142.9V85.3l66.4 39.5.1 7.2L31 104.9l-.1 7 45.7 27.5.1 7.3L31 119.4l-.1 7 45.7 27.5 46.2-27.6v-7h-.1V96.6l20.6-12.3v58.6zm-.1-66.1l-18.2 10.7-8.4 5-40.2-23.8-.1 7L110.7 96l-.3.2-.7.4-4.9 2.9-28.3-16.8-.1 7L98.8 103l-5.3 3.5-.1.1-16.9-10-.1 7 11.1 6.5-11.3 6.8-66-39.3 66.1-39.8 67 39zm.1-6.9l-67-39.5L10 69.8V17.1l66.7-7 66.7 7v52.8z"/></svg>