<svg xmlns="http://www.w3.org/2000/svg" viewBox="0 0 452.8 154.6"><path fill="#FFF" d="M186.5 112.7c.8 0 1.6-.2 2.3-.4v5.6c-1.5.6-3.2.9-5 .9-3.2 0-5.8-1.2-7-4.1-3.4 2.8-7.7 4.5-13.2 4.5-6.3 0-12.2-3.5-12.2-10.7 0-9 8.3-11.7 15.6-11.7 3 0 6.3.4 9.1 1v-1.2c0-4.4-3.2-7.4-9.2-7.4-5.2 0-9.5 1.3-12.6 2.7v-7.1c2.8-.9 7.8-2.3 13.4-2.3 9.9 0 16.2 4.7 16.2 15.3v12.5c0 1.9 1.2 2.4 2.6 2.4zm-27-4.7c0 3.4 3.1 5.2 6.6 5.2 3.7 0 7.4-1.4 10.1-4.2v-5.9c-2.1-.4-5.1-.9-7.6-.9-4.5 0-9.1 1.4-9.1 5.8zm51.8-25.6c3.9 0 7.7.9 10.8 2.7v7.1c-2.5-1.8-6.1-2.9-9.7-2.9-6.2 0-12.5 3.3-12.5 11.5 0 7.9 6 11.5 12.3 11.5 3.7 0 7.4-1.1 10.2-2.7v7.2c-3.4 1.6-7.1 2.4-11.6 2.4-9.3 0-18.9-5.7-18.9-18.1.1-13.1 10.1-18.7 19.4-18.7zm51.1 30.3c.8 0 1.6-.2 2.3-.4v5.6c-1.5.6-3.2.9-5 .9-3.2 0-5.8-1.2-7-4.1-3.4 2.8-7.7 4.5-13.2 4.5-6.3 0-12.2-3.5-12.2-10.7 0-9 8.3-11.7 15.6-11.7 3 0 6.3.4 9.1 1v-1.2c0-4.4-3.2-7.4-9.2-7.4-5.2 0-9.5 1.3-12.6 2.7v-7.1c2.8-.9 7.8-2.3 13.4-2.3 9.9 0 16.2 4.7 16.2 15.3v12.5c0 1.9 1.2 2.4 2.6 2.4zm-27-4.7c0 3.4 3.1 5.2 6.6 5.2 3.7 0 7.4-1.4 10.1-4.2v-5.9c-2.1-.4-5.1-.9-7.6-.9-4.5 0-9.1 1.4-9.1 5.8zm70.2-40.7v51h-7v-5.5c-2.7 3.4-6.8 6.5-13.4 6.5-10.6 0-17.3-8.4-17.3-18.4 0-10.1 6.8-18.4 17.3-18.4 6.1 0 10.2 2.7 12.6 5.5V67.3h7.8zm-19 21.9c-6.3 0-10.9 4.7-10.9 11.6 0 6.8 4.6 11.6 10.9 11.6 5.5 0 9.5-3.5 11.1-7.4v-8.5c-1.6-3.8-5.6-7.3-11.1-7.3zm44.3-6.8c13.9 0 18.7 11.2 16.5 21.3h-26.3c.9 6.3 7 8.9 13.4 8.9 4.2 0 8.1-1 11.1-2.5v6.7c-3.2 1.5-7.6 2.4-12.5 2.4-10.7 0-19.8-6.1-19.8-18.4-.1-12.7 9.5-18.4 17.6-18.4zm.4 6.4c-5.2 0-10 3.1-10.3 9h19.4c.4-3-1.5-9-9.1-9zm24 29.5v-35h6.9v4.4c1.9-2.1 6-5.3 11.7-5.3 5.2 0 8.9 2.2 10.9 5.6 3.1-3.1 7.1-5.6 12.2-5.6 9.2 0 13.3 6.8 13.3 14.1v21.8h-7.8V96.6c0-4.5-2.7-7.4-6.9-7.4-3.9 0-6.8 2.5-8.7 4.7.1.8.1 1.6.1 2.4v21.8h-7.8V96.6c0-4.5-2.7-7.4-6.9-7.4s-7.4 3.1-9.2 5.4v23.6h-7.8zm89.4-35h8.2L436.4 123c-3.8 9.1-8.7 12.2-14.1 12.2-1.5 0-3.1-.2-4.6-.6V128c1.2.4 2.4.5 3.6.5 3.8 0 6.6-2.7 8.7-8.2l.7-1.7-16.6-35.2h8.3l11.8 26.4 10.5-26.5zM161.8 6.1V26c2.5-2.6 6.6-4.8 11.3-4.8 8.8 0 14.4 6 14.4 14.3v21.6h-7.8V36.5c0-5.7-3.5-8.4-8.2-8.4-4.4 0-7.8 3-9.8 5.8v23.2H154v-51h7.8zm47 3.5v12.5h12.7v6.8h-12.7v16c0 4.6 2.1 6.1 6.6 6.1 2.5 0 4.9-.5 7.1-1.4v6.7c-2.6.9-6 1.5-9.4 1.5-6.8 0-12-3.4-12-11.5V28.9h-6.3v-6.8h6.3V11.5l7.7-1.9zm22.7 47.5v-35h6.9v4.4c1.9-2.1 6-5.3 11.7-5.3 5.2 0 8.9 2.2 10.9 5.6 3.1-3.1 7.1-5.6 12.2-5.6 9.2 0 13.3 6.8 13.3 14.1v21.8h-7.8V35.4c0-4.5-2.7-7.4-6.9-7.4-3.9 0-6.8 2.5-8.7 4.7.1.8.1 1.6.1 2.4v21.8h-7.8V35.4c0-4.5-2.7-7.4-6.9-7.4s-7.4 3.1-9.2 5.4V57h-7.8zm66.3-51h7.8v51h-7.8zM61.7.1L61 0 0 6.4v111.9l61 36.3 61-36.3V6.4L61.7.1zm52.4 113.6L61 145.3 8 113.7V67.9l52.8 31.4.1 5.7-36.2-21.5-.1 5.5L61 110.8l.1 5.8-36.4-21.5-.1 5.5L61 122.5l36.7-22V76.9l16.4-9.8v46.6zm-.1-52.5l-14.5 8.6-6.7 3.9-32-19-.1 5.5L88 76.4l-.2.1-.6.3-3.9 2.3-22.4-13.3-.1 5.5 17.8 10.6-4.2 2.8-.1.1-13.4-7.9-.1 5.5 8.8 5.2-9 5.4L8.1 61.7l52.6-31.6L114 61.2zm.1-5.6L60.8 24.2 8 55.6v-42L61 8l53.1 5.6v42z"/></svg>